<svg xmlns="http://www.w3.org/2000/svg" viewBox="0 0 377 248"><defs><style>.cls-1{fill:#438194;opacity:0.45;}.cls-2{fill:#fff;}.cls-3{fill:#ed1c24;}.cls-4{fill:none;stroke:#bcbec0;stroke-miterlimit:10;}</style></defs><title>Asset 4</title><g id="Layer_2" data-name="Layer 2"><g id="Calander"><g id="Calander-2" data-name="Calander"><rect class="cls-1" y="8" width="369" height="240" rx="20.55" ry="20.55"/><rect class="cls-2" x="8" width="369" height="240" rx="15.2" ry="15.2"/><path class="cls-3" d="M361.8,0H23.2A15.21,15.21,0,0,0,8,15.2V29H377V15.2A15.21,15.21,0,0,0,361.8,0Z"/></g><g id="Rectangle"><rect class="cls-4" x="29.81" y="41.47" width="42.32" height="42.32"/><rect class="cls-4" x="77.2" y="41.47" width="42.32" height="42.32"/><rect class="cls-4" x="125.18" y="41.47" width="42.32" height="42.32"/><rect class="cls-4" x="172.27" y="41.47" width="42.32" height="42.32"/><rect class="cls-4" x="218.76" y="41.47" width="42.32" height="42.32"/><rect class="cls-4" x="266.15" y="41.47" width="42.32" height="42.32"/><rect class="cls-4" x="314.13" y="41.47" width="42.32" height="42.32"/><rect class="cls-4" x="29.2" y="90.33" width="42.32" height="42.32"/><rect class="cls-4" x="76.59" y="90.33" width="42.32" height="42.32"/><rect class="cls-4" x="124.57" y="90.33" width="42.32" height="42.32"/><rect class="cls-4" x="171.66" y="90.33" width="42.32" height="42.32"/><rect class="cls-4" x="218.15" y="90.33" width="42.32" height="42.32"/><rect class="cls-4" x="265.54" y="90.33" width="42.32" height="42.32"/><rect class="cls-4" x="313.52" y="90.33" width="42.32" height="42.32"/><rect class="cls-4" x="29.2" y="136.36" width="42.32" height="42.32"/><rect class="cls-4" x="76.59" y="136.36" width="42.32" height="42.32"/><rect class="cls-4" x="124.57" y="136.36" width="42.32" height="42.32"/><rect class="cls-4" x="171.66" y="136.36" width="42.32" height="42.32"/><rect class="cls-4" x="218.15" y="136.36" width="42.32" height="42.32"/><rect class="cls-4" x="265.54" y="136.36" width="42.32" height="42.32"/><rect class="cls-4" x="313.52" y="136.36" width="42.32" height="42.32"/><rect class="cls-4" x="29.2" y="182.4" width="42.32" height="42.32"/><rect class="cls-4" x="76.59" y="182.4" width="42.32" height="42.32"/><rect class="cls-4" x="124.57" y="182.4" width="42.32" height="42.32"/><rect class="cls-4" x="171.66" y="182.4" width="42.32" height="42.32"/><rect class="cls-4" x="218.15" y="182.4" width="42.32" height="42.32"/><rect class="cls-4" x="265.54" y="182.4" width="42.32" height="42.32"/><rect class="cls-4" x="313.52" y="182.4" width="42.32" height="42.32"/></g><g id="White"><rect class="cls-2" x="30.86" y="40.87" width="42.24" height="42.24"/><rect class="cls-2" x="78.16" y="40.87" width="42.24" height="42.24"/><rect class="cls-2" x="126.06" y="40.87" width="42.24" height="42.24"/><rect class="cls-2" x="173.06" y="40.87" width="42.24" height="42.24"/><rect class="cls-2" x="219.46" y="40.87" width="42.24" height="42.24"/><rect class="cls-2" x="266.76" y="40.87" width="42.24" height="42.24"/><rect class="cls-2" x="314.65" y="40.87" width="42.24" height="42.24"/><rect class="cls-2" x="30.25" y="89.64" width="42.24" height="42.24"/><rect class="cls-2" x="77.55" y="89.64" width="42.24" height="42.24"/><rect class="cls-2" x="125.45" y="89.64" width="42.24" height="42.24"/><rect class="cls-2" x="172.45" y="89.64" width="42.24" height="42.24"/><rect class="cls-2" x="218.85" y="89.64" width="42.24" height="42.24"/><rect class="cls-2" x="266.15" y="89.64" width="42.24" height="42.24"/><rect class="cls-2" x="314.04" y="89.64" width="42.24" height="42.24"/><rect class="cls-2" x="30.25" y="135.59" width="42.24" height="42.24"/><rect class="cls-2" x="77.55" y="135.59" width="42.24" height="42.24"/><rect class="cls-2" x="125.45" y="135.59" width="42.24" height="42.24"/><rect class="cls-2" x="172.45" y="135.59" width="42.24" height="42.24"/><rect class="cls-2" x="218.85" y="135.59" width="42.24" height="42.24"/><rect class="cls-2" x="266.15" y="135.59" width="42.24" height="42.24"/><rect class="cls-2" x="314.04" y="135.59" width="42.24" height="42.24"/><rect class="cls-2" x="30.25" y="181.54" width="42.24" height="42.24"/><rect class="cls-2" x="77.55" y="181.54" width="42.24" height="42.24"/><rect class="cls-2" x="125.45" y="181.54" width="42.24" height="42.24"/><rect class="cls-2" x="172.45" y="181.54" width="42.24" height="42.24"/><rect class="cls-2" x="218.85" y="181.54" width="42.24" height="42.24"/><rect class="cls-2" x="266.15" y="181.54" width="42.24" height="42.24"/><rect class="cls-2" x="314.04" y="181.54" width="42.24" height="42.24"/></g></g></g></svg>