<svg xmlns="http://www.w3.org/2000/svg" viewBox="0 0 232.75 178.85"><defs><style>.cls-1{fill:#438194;opacity:0.45;}.cls-2{fill:#fff;}.cls-3,.cls-4{fill:#d1d3d4;}.cls-4{stroke:#fff;stroke-miterlimit:10;stroke-width:2px;}</style></defs><title>Asset 1</title><g id="Layer_2" data-name="Layer 2"><g id="Camera"><path class="cls-1" d="M215.8,40.07H156.29L142.81,16.75a17.23,17.23,0,0,0-14.92-8.61l-33.81,0a17.21,17.21,0,0,0-14.91,8.61L65.73,40.07H53.55V26a4.77,4.77,0,0,0-4.77-4.77H31A4.78,4.78,0,0,0,26.19,26v14H8.79A8.78,8.78,0,0,0,0,48.86V170.07a8.78,8.78,0,0,0,8.79,8.78h207a8.78,8.78,0,0,0,8.78-8.78V48.86A8.78,8.78,0,0,0,215.8,40.07Z"/><path class="cls-2" d="M224,31.93H164.45L151,8.6A17.25,17.25,0,0,0,136.05,0L102.24,0A17.22,17.22,0,0,0,87.33,8.63L73.9,31.93H61.72v-14a4.78,4.78,0,0,0-4.78-4.77H39.13a4.77,4.77,0,0,0-4.77,4.77v14H17a8.79,8.79,0,0,0-8.79,8.79V161.93A8.79,8.79,0,0,0,17,170.71H224a8.79,8.79,0,0,0,8.79-8.78V40.72A8.79,8.79,0,0,0,224,31.93Z"/><circle class="cls-3" cx="120.45" cy="101.8" r="51.2"/><rect class="cls-3" x="169.98" y="47.62" width="27.36" height="9.55" rx="4.77" ry="4.77"/><circle class="cls-4" cx="120.45" cy="101.8" r="44.4"/></g></g></svg>